<?xml version="1.0" standalone="no"?>
<!DOCTYPE svg PUBLIC "-//W3C//DTD SVG 20010904//EN"
 "http://www.w3.org/TR/2001/REC-SVG-20010904/DTD/svg10.dtd">
<svg version="1.0" xmlns="http://www.w3.org/2000/svg"
 width="457.000000pt" height="457.000000pt" viewBox="0 0 457.000000 457.000000"
 preserveAspectRatio="xMidYMid meet">
<metadata>
Created by potrace 1.11, written by Peter Selinger 2001-2013
</metadata>
<g transform="translate(0.000000,457.000000) scale(0.100000,-0.100000)"
fill="#000000" stroke="none">
<path d="M1111 3769 c-54 -24 -234 -203 -327 -326 -17 -22 -18 -77 -3 -106 10
-17 95 -123 119 -147 3 -3 39 -43 80 -90 41 -47 77 -87 80 -90 3 -3 25 -28 50
-55 349 -391 332 -375 428 -369 51 4 97 30 146 84 l35 39 209 -209 208 -209
-142 -142 -143 -143 42 -23 c44 -25 97 -78 97 -97 0 -6 5 -18 10 -26 8 -12 14
-9 37 19 88 107 149 180 172 206 15 17 34 40 42 53 l16 22 49 -53 c192 -209
237 -257 240 -255 1 2 5 15 7 29 8 43 29 69 80 96 l48 27 -144 144 -143 143
223 224 224 223 43 -44 c24 -23 56 -46 72 -49 16 -4 34 -8 40 -10 27 -8 62 28
348 359 28 33 69 81 91 106 22 25 60 70 85 100 25 29 80 94 123 144 80 94 94
129 57 141 -23 7 -47 -6 -100 -57 -20 -18 -74 -68 -122 -111 -47 -42 -97 -87
-110 -100 -14 -12 -69 -63 -124 -113 -158 -145 -173 -156 -200 -156 -57 0
-104 53 -104 118 0 33 18 60 100 145 14 14 57 61 95 104 39 43 79 88 90 100
11 11 40 43 64 70 24 28 67 75 95 105 94 101 107 120 96 140 -24 44 -48 29
-295 -191 -16 -15 -100 -87 -185 -160 -85 -74 -168 -146 -185 -160 -16 -15
-70 -61 -120 -104 -49 -43 -93 -85 -96 -95 -13 -32 4 -71 52 -119 27 -27 49
-52 49 -54 0 -7 -44 -50 -196 -193 -214 -200 -239 -223 -244 -224 -3 0 -98 93
-213 208 l-207 207 61 78 c85 109 85 146 1 233 -40 41 -199 191 -293 275 -15
13 -60 54 -100 90 -41 36 -123 109 -182 162 -59 54 -113 98 -120 98 -7 1 -24
3 -38 4 -14 2 -44 -5 -68 -16z"/>
<path d="M162 2470 c-97 -23 -169 -122 -158 -219 8 -69 19 -92 65 -138 80 -78
198 -79 285 -2 108 94 84 277 -46 345 -34 17 -103 24 -146 14z"/>
<path d="M4299 2470 c-135 -38 -197 -192 -126 -313 47 -80 154 -121 243 -94
46 14 107 68 130 114 22 46 22 138 1 179 -21 39 -75 90 -112 104 -37 15 -101
19 -136 10z"/>
<path d="M1755 1884 c-34 -31 -137 -128 -350 -329 -23 -22 -75 -71 -116 -109
-41 -38 -143 -135 -228 -215 -261 -246 -248 -230 -237 -306 10 -62 62 -102
121 -91 32 6 91 62 346 327 35 36 178 183 318 327 140 144 261 272 269 283 8
12 16 42 16 66 1 36 -4 48 -24 63 -37 29 -70 24 -115 -16z"/>
<path d="M2685 1901 c-46 -19 -64 -71 -43 -120 7 -16 128 -148 268 -292 140
-144 286 -294 323 -333 349 -362 367 -377 435 -361 42 9 60 28 73 76 15 56 6
93 -30 127 -44 43 -312 296 -351 332 -19 18 -95 89 -169 159 -74 69 -146 137
-161 151 -15 14 -69 65 -121 114 -52 49 -107 101 -124 117 -34 31 -70 42 -100
30z"/>
</g>
</svg>
